<?xml version="1.0" encoding="UTF-8" standalone="no"?>
<svg
   xmlns:dc="http://purl.org/dc/elements/1.1/"
   xmlns:cc="http://creativecommons.org/ns#"
   xmlns:rdf="http://www.w3.org/1999/02/22-rdf-syntax-ns#"
   xmlns:svg="http://www.w3.org/2000/svg"
   xmlns="http://www.w3.org/2000/svg"
   xmlns:sodipodi="http://sodipodi.sourceforge.net/DTD/sodipodi-0.dtd"
   xmlns:inkscape="http://www.inkscape.org/namespaces/inkscape"
   width="320"
   height="320"
   version="1.1"
   viewBox="0 0 320 320"
   id="svg183"
   sodipodi:docname="thingsboard_center.svg"
   inkscape:version="1.0.1 (3bc2e813f5, 2020-09-07)">
  <metadata
     id="metadata189">
    <rdf:RDF>
      <cc:Work
         rdf:about="">
        <dc:format>image/svg+xml</dc:format>
        <dc:type
           rdf:resource="http://purl.org/dc/dcmitype/StillImage" />
      </cc:Work>
    </rdf:RDF>
  </metadata>
  <defs
     id="defs187" />
  <sodipodi:namedview
     pagecolor="#ffffff"
     bordercolor="#666666"
     borderopacity="1"
     objecttolerance="10"
     gridtolerance="10"
     guidetolerance="10"
     inkscape:pageopacity="0"
     inkscape:pageshadow="2"
     inkscape:window-width="1366"
     inkscape:window-height="745"
     id="namedview185"
     showgrid="false"
     inkscape:zoom="1.80625"
     inkscape:cx="160"
     inkscape:cy="160"
     inkscape:window-x="-8"
     inkscape:window-y="-8"
     inkscape:window-maximized="1"
     inkscape:current-layer="svg183" />
  <g
     stroke-width="28"
     id="g177" />
  <g
     id="Layer_2"
     style="fill:#800080"
     transform="matrix(2.4066025,0,0,1.8280139,-565.65112,-489.48614)">
    <g
       id="g147"
       style="fill:#800080">
      <path
         class="st0"
         d="m 313.4,382.2 c -3.4,2.7 -7.8,4.3 -12.5,4.3 -11.1,0 -20.1,-9 -20.1,-20.1 l 0.3,-45.9 c 0,-0.6 -0.5,-1 -1,-1 h -17.9 c -0.6,0 -1,0.5 -1,1 l -0.2,45.9 c 0,22.1 17.9,40 40,40 3.8,0 7.5,-0.5 11,-1.5 1.6,-0.4 2.6,-1.9 2.6,-3.5 l 0.1,-18.5 c 0,0 -0.1,-0.6 -0.4,-0.8 -0.4,-0.3 -0.9,0.1 -0.9,0.1 z"
         id="path143"
         style="fill:#800080" />
      <path
         class="st0"
         d="m 286.9,349 c 0,0.8 0,1.6 0.4,1.8 0.5,0.3 1,0 1.7,-0.7 3.2,-2.3 7.1,-3.8 11.3,-3.9 11.3,-0.3 20.5,9.2 20.5,20.5 v 29.7 c 0,7.9 3.4,12.5 8.3,13.3 6.3,1 11.7,-3.8 11.7,-9.9 l 0.1,-33.5 c 0,-22.1 -17.9,-40 -40,-40 -4.6,0 -9,0.8 -13.1,2.2 -0.5,0.2 -0.9,0.7 -0.9,1.3 z"
         id="path145"
         style="fill:#800080" />
    </g>
    <path
       class="st0"
       d="m 280.1,313.2 h -18 c -0.5,0 -1,-0.4 -1,-1 v -8.4 c 0,-5 3.6,-9.5 8.5,-10.2 6.2,-0.9 11.4,3.9 11.4,9.9 v 8.7 c 0.1,0.6 -0.4,1 -0.9,1 z"
       id="path149"
       style="fill:#800080" />
  </g>
</svg>
